<svg id="Camada_1" data-name="Camada 1" xmlns="http://www.w3.org/2000/svg" viewBox="0 0 1702.19 84.19"><defs><style>.cls-1{fill:#1d1d1b;}.cls-2{fill:#e52421;}</style></defs><rect class="cls-1" x="2.58" y="42.09" width="1.4" height="42.09"/><rect class="cls-1" y="42.09" width="1.4" height="42.09"/><rect class="cls-1" x="5.16" y="42.09" width="1.4" height="42.09"/><rect class="cls-1" x="7.74" y="42.09" width="1.4" height="42.09"/><rect class="cls-1" x="10.32" y="42.09" width="1.4" height="42.09"/><rect class="cls-1" x="12.9" y="42.09" width="1.4" height="42.09"/><rect class="cls-1" x="15.49" y="42.09" width="1.4" height="42.09"/><rect class="cls-1" x="18.07" y="42.09" width="1.4" height="42.09"/><rect class="cls-1" x="20.65" y="42.09" width="1.4" height="42.09"/><rect class="cls-1" x="23.23" y="42.09" width="1.4" height="42.09"/><rect class="cls-1" x="25.81" width="1.4" height="84.19"/><rect class="cls-1" x="28.39" y="42.09" width="1.4" height="42.09"/><rect class="cls-1" x="30.97" y="42.09" width="1.4" height="42.09"/><rect class="cls-1" x="33.55" y="42.09" width="1.4" height="42.09"/><rect class="cls-1" x="36.13" y="42.09" width="1.4" height="42.09"/><rect class="cls-1" x="38.71" y="42.09" width="1.4" height="42.09"/><rect class="cls-1" x="41.29" y="42.09" width="1.4" height="42.09"/><rect class="cls-1" x="43.87" y="42.09" width="1.4" height="42.09"/><rect class="cls-1" x="46.46" y="42.09" width="1.4" height="42.09"/><rect class="cls-1" x="49.04" y="42.09" width="1.4" height="42.09"/><rect class="cls-1" x="51.62" y="42.09" width="1.4" height="42.09"/><rect class="cls-1" x="54.2" width="1.4" height="84.19"/><rect class="cls-1" x="56.78" y="42.09" width="1.4" height="42.09"/><rect class="cls-1" x="59.36" y="42.09" width="1.4" height="42.09"/><rect class="cls-1" x="61.94" y="42.09" width="1.4" height="42.09"/><rect class="cls-1" x="64.52" y="42.09" width="1.4" height="42.09"/><rect class="cls-1" x="67.1" y="42.09" width="1.4" height="42.09"/><rect class="cls-1" x="69.68" y="42.09" width="1.4" height="42.09"/><rect class="cls-1" x="72.26" y="42.09" width="1.4" height="42.09"/><rect class="cls-1" x="74.84" y="42.09" width="1.4" height="42.09"/><rect class="cls-1" x="77.43" y="42.09" width="1.4" height="42.09"/><rect class="cls-1" x="80.01" y="42.09" width="1.4" height="42.09"/><rect class="cls-1" x="82.59" width="1.4" height="84.19"/><rect class="cls-1" x="85.17" y="42.09" width="1.4" height="42.09"/><rect class="cls-1" x="87.75" y="42.09" width="1.4" height="42.09"/><rect class="cls-1" x="90.33" y="42.09" width="1.4" height="42.09"/><rect class="cls-1" x="92.91" y="42.09" width="1.4" height="42.09"/><rect class="cls-1" x="95.49" y="42.09" width="1.4" height="42.09"/><rect class="cls-1" x="98.07" y="42.09" width="1.4" height="42.09"/><rect class="cls-1" x="100.65" y="42.09" width="1.4" height="42.09"/><rect class="cls-1" x="103.23" y="42.09" width="1.4" height="42.09"/><rect class="cls-1" x="105.82" y="42.09" width="1.4" height="42.09"/><rect class="cls-1" x="108.4" y="42.09" width="1.4" height="42.09"/><rect class="cls-1" x="110.98" width="1.4" height="84.19"/><rect class="cls-1" x="113.56" y="42.09" width="1.4" height="42.09"/><rect class="cls-1" x="116.14" y="42.09" width="1.4" height="42.09"/><rect class="cls-1" x="118.72" y="42.09" width="1.4" height="42.09"/><rect class="cls-1" x="121.3" y="42.09" width="1.4" height="42.09"/><rect class="cls-1" x="123.88" y="42.09" width="1.4" height="42.09"/><rect class="cls-1" x="126.46" y="42.09" width="1.4" height="42.09"/><rect class="cls-1" x="129.04" y="42.09" width="1.4" height="42.09"/><rect class="cls-1" x="131.62" y="42.09" width="1.4" height="42.09"/><rect class="cls-1" x="134.2" y="42.09" width="1.4" height="42.09"/><rect class="cls-1" x="136.79" y="42.09" width="1.4" height="42.09"/><rect class="cls-1" x="139.37" width="1.4" height="84.19"/><rect class="cls-1" x="141.95" y="42.09" width="1.4" height="42.09"/><rect class="cls-1" x="144.53" y="42.09" width="1.4" height="42.09"/><rect class="cls-1" x="147.11" y="42.09" width="1.4" height="42.09"/><rect class="cls-1" x="149.69" y="42.09" width="1.4" height="42.09"/><rect class="cls-1" x="152.27" y="42.09" width="1.4" height="42.09"/><rect class="cls-1" x="154.85" y="42.09" width="1.4" height="42.09"/><rect class="cls-1" x="157.43" y="42.09" width="1.4" height="42.09"/><rect class="cls-1" x="160.01" y="42.09" width="1.4" height="42.09"/><rect class="cls-1" x="162.59" y="42.09" width="1.4" height="42.09"/><rect class="cls-1" x="165.18" y="42.09" width="1.4" height="42.09"/><rect class="cls-1" x="167.76" width="1.4" height="84.19"/><rect class="cls-1" x="170.34" y="42.09" width="1.4" height="42.09"/><rect class="cls-1" x="172.92" y="42.09" width="1.4" height="42.09"/><rect class="cls-1" x="175.5" y="42.09" width="1.4" height="42.09"/><rect class="cls-1" x="178.08" y="42.09" width="1.4" height="42.09"/><rect class="cls-1" x="180.66" y="42.09" width="1.4" height="42.09"/><rect class="cls-1" x="183.24" y="42.09" width="1.4" height="42.09"/><rect class="cls-1" x="185.82" y="42.09" width="1.4" height="42.09"/><rect class="cls-1" x="188.4" y="42.09" width="1.4" height="42.09"/><rect class="cls-1" x="190.98" y="42.09" width="1.4" height="42.09"/><rect class="cls-1" x="193.56" y="42.09" width="1.4" height="42.09"/><rect class="cls-1" x="196.15" width="1.4" height="84.19"/><rect class="cls-1" x="198.73" y="42.09" width="1.4" height="42.09"/><rect class="cls-1" x="201.31" y="42.09" width="1.4" height="42.09"/><rect class="cls-1" x="203.89" y="42.09" width="1.4" height="42.09"/><rect class="cls-1" x="206.47" y="42.09" width="1.4" height="42.09"/><rect class="cls-1" x="209.05" y="42.09" width="1.4" height="42.09"/><rect class="cls-1" x="211.63" y="42.09" width="1.4" height="42.09"/><rect class="cls-1" x="214.21" y="42.09" width="1.4" height="42.09"/><rect class="cls-1" x="216.79" y="42.09" width="1.4" height="42.09"/><rect class="cls-1" x="219.37" y="42.09" width="1.4" height="42.09"/><rect class="cls-1" x="221.95" y="42.09" width="1.4" height="42.09"/><rect class="cls-1" x="224.53" width="1.4" height="84.19"/><rect class="cls-1" x="227.12" y="42.09" width="1.4" height="42.09"/><rect class="cls-1" x="229.7" y="42.09" width="1.4" height="42.09"/><rect class="cls-1" x="232.28" y="42.09" width="1.4" height="42.09"/><rect class="cls-1" x="234.86" y="42.09" width="1.4" height="42.09"/><rect class="cls-1" x="237.44" y="42.09" width="1.4" height="42.09"/><rect class="cls-1" x="240.02" y="42.09" width="1.4" height="42.09"/><rect class="cls-1" x="242.6" y="42.09" width="1.4" height="42.09"/><rect class="cls-1" x="245.18" y="42.09" width="1.4" height="42.09"/><rect class="cls-1" x="247.76" y="42.09" width="1.4" height="42.09"/><rect class="cls-1" x="250.34" y="42.09" width="1.4" height="42.09"/><rect class="cls-1" x="252.92" width="1.4" height="84.19"/><rect class="cls-1" x="255.51" y="42.09" width="1.4" height="42.09"/><rect class="cls-1" x="258.09" y="42.09" width="1.4" height="42.09"/><rect class="cls-1" x="260.67" y="42.09" width="1.4" height="42.09"/><rect class="cls-1" x="263.25" y="42.09" width="1.4" height="42.09"/><rect class="cls-1" x="265.83" y="42.09" width="1.4" height="42.09"/><rect class="cls-1" x="268.41" y="42.09" width="1.4" height="42.09"/><rect class="cls-1" x="270.99" y="42.09" width="1.4" height="42.09"/><rect class="cls-1" x="273.57" y="42.09" width="1.4" height="42.09"/><rect class="cls-1" x="276.15" y="42.09" width="1.4" height="42.09"/><rect class="cls-1" x="278.73" y="42.09" width="1.4" height="42.09"/><rect class="cls-2" x="281.31" width="1.4" height="84.19"/><rect class="cls-1" x="283.89" y="42.09" width="1.4" height="42.09"/><rect class="cls-1" x="286.48" y="42.09" width="1.4" height="42.09"/><rect class="cls-1" x="289.06" y="42.09" width="1.4" height="42.09"/><rect class="cls-1" x="291.64" y="42.09" width="1.4" height="42.09"/><rect class="cls-1" x="294.22" y="42.09" width="1.4" height="42.09"/><rect class="cls-1" x="296.8" y="42.09" width="1.4" height="42.09"/><rect class="cls-1" x="299.38" y="42.09" width="1.4" height="42.09"/><rect class="cls-1" x="301.96" y="42.09" width="1.4" height="42.09"/><rect class="cls-1" x="304.54" y="42.09" width="1.4" height="42.09"/><rect class="cls-1" x="307.12" y="42.09" width="1.4" height="42.09"/><rect class="cls-1" x="309.7" width="1.4" height="84.19"/><rect class="cls-1" x="312.28" y="42.09" width="1.4" height="42.09"/><rect class="cls-1" x="314.87" y="42.09" width="1.4" height="42.09"/><rect class="cls-1" x="317.45" y="42.09" width="1.4" height="42.09"/><rect class="cls-1" x="320.03" y="42.09" width="1.4" height="42.09"/><rect class="cls-1" x="322.61" y="42.09" width="1.4" height="42.09"/><rect class="cls-1" x="325.19" y="42.09" width="1.4" height="42.09"/><rect class="cls-1" x="327.77" y="42.09" width="1.4" height="42.09"/><rect class="cls-1" x="330.35" y="42.09" width="1.4" height="42.09"/><rect class="cls-1" x="332.93" y="42.09" width="1.4" height="42.09"/><rect class="cls-1" x="335.51" y="42.09" width="1.4" height="42.09"/><rect class="cls-1" x="338.09" width="1.4" height="84.19"/><rect class="cls-1" x="340.67" y="42.09" width="1.4" height="42.09"/><rect class="cls-1" x="343.25" y="42.09" width="1.4" height="42.09"/><rect class="cls-1" x="345.84" y="42.09" width="1.4" height="42.09"/><rect class="cls-1" x="348.42" y="42.09" width="1.4" height="42.09"/><rect class="cls-1" x="351" y="42.09" width="1.4" height="42.09"/><rect class="cls-1" x="353.58" y="42.09" width="1.4" height="42.09"/><rect class="cls-1" x="356.16" y="42.09" width="1.4" height="42.09"/><rect class="cls-1" x="358.74" y="42.09" width="1.4" height="42.09"/><rect class="cls-1" x="361.32" y="42.09" width="1.4" height="42.09"/><rect class="cls-1" x="363.9" y="42.09" width="1.4" height="42.09"/><rect class="cls-1" x="366.48" width="1.4" height="84.19"/><rect class="cls-1" x="369.06" y="42.09" width="1.4" height="42.09"/><rect class="cls-1" x="371.64" y="42.09" width="1.4" height="42.09"/><rect class="cls-1" x="374.22" y="42.09" width="1.4" height="42.09"/><rect class="cls-1" x="376.81" y="42.09" width="1.4" height="42.09"/><rect class="cls-1" x="379.39" y="42.09" width="1.4" height="42.09"/><rect class="cls-1" x="381.97" y="42.09" width="1.4" height="42.09"/><rect class="cls-1" x="384.55" y="42.09" width="1.4" height="42.09"/><rect class="cls-1" x="387.13" y="42.09" width="1.4" height="42.09"/><rect class="cls-1" x="389.71" y="42.09" width="1.4" height="42.09"/><rect class="cls-1" x="392.29" y="42.09" width="1.4" height="42.09"/><rect class="cls-1" x="394.87" width="1.4" height="84.19"/><rect class="cls-1" x="397.45" y="42.09" width="1.4" height="42.09"/><rect class="cls-1" x="400.03" y="42.09" width="1.4" height="42.09"/><rect class="cls-1" x="402.61" y="42.09" width="1.4" height="42.09"/><rect class="cls-1" x="405.2" y="42.09" width="1.4" height="42.09"/><rect class="cls-1" x="407.78" y="42.09" width="1.4" height="42.09"/><rect class="cls-1" x="410.36" y="42.09" width="1.4" height="42.09"/><rect class="cls-1" x="412.94" y="42.09" width="1.4" height="42.09"/><rect class="cls-1" x="415.52" y="42.09" width="1.4" height="42.09"/><rect class="cls-1" x="418.1" y="42.09" width="1.4" height="42.09"/><rect class="cls-1" x="420.68" y="42.09" width="1.4" height="42.09"/><rect class="cls-1" x="423.26" width="1.4" height="84.19"/><rect class="cls-1" x="425.84" y="42.09" width="1.4" height="42.09"/><rect class="cls-1" x="428.42" y="42.09" width="1.4" height="42.09"/><rect class="cls-1" x="431" y="42.09" width="1.4" height="42.09"/><rect class="cls-1" x="433.58" y="42.09" width="1.4" height="42.09"/><rect class="cls-1" x="436.17" y="42.09" width="1.4" height="42.09"/><rect class="cls-1" x="438.75" y="42.09" width="1.4" height="42.09"/><rect class="cls-1" x="441.33" y="42.09" width="1.4" height="42.09"/><rect class="cls-1" x="443.91" y="42.09" width="1.4" height="42.09"/><rect class="cls-1" x="446.49" y="42.09" width="1.4" height="42.09"/><rect class="cls-1" x="449.07" y="42.09" width="1.4" height="42.09"/><rect class="cls-1" x="451.65" width="1.4" height="84.19"/><rect class="cls-1" x="454.23" y="42.09" width="1.4" height="42.09"/><rect class="cls-1" x="456.81" y="42.09" width="1.4" height="42.09"/><rect class="cls-1" x="459.39" y="42.09" width="1.4" height="42.09"/><rect class="cls-1" x="461.97" y="42.09" width="1.4" height="42.09"/><rect class="cls-1" x="464.56" y="42.09" width="1.4" height="42.09"/><rect class="cls-1" x="467.14" y="42.09" width="1.4" height="42.09"/><rect class="cls-1" x="469.72" y="42.09" width="1.4" height="42.09"/><rect class="cls-1" x="472.3" y="42.09" width="1.4" height="42.09"/><rect class="cls-1" x="474.88" y="42.09" width="1.4" height="42.09"/><rect class="cls-1" x="477.46" y="42.09" width="1.4" height="42.09"/><rect class="cls-1" x="480.04" width="1.4" height="84.19"/><rect class="cls-1" x="482.62" y="42.09" width="1.4" height="42.09"/><rect class="cls-1" x="485.2" y="42.09" width="1.4" height="42.09"/><rect class="cls-1" x="487.78" y="42.09" width="1.4" height="42.09"/><rect class="cls-1" x="490.36" y="42.09" width="1.4" height="42.09"/><rect class="cls-1" x="492.94" y="42.09" width="1.4" height="42.09"/><rect class="cls-1" x="495.53" y="42.09" width="1.4" height="42.09"/><rect class="cls-1" x="498.11" y="42.09" width="1.4" height="42.09"/><rect class="cls-1" x="500.69" y="42.09" width="1.4" height="42.09"/><rect class="cls-1" x="503.27" y="42.09" width="1.4" height="42.09"/><rect class="cls-1" x="505.85" y="42.09" width="1.4" height="42.09"/><rect class="cls-1" x="508.43" width="1.4" height="84.19"/><rect class="cls-1" x="511.01" y="42.09" width="1.4" height="42.09"/><rect class="cls-1" x="513.59" y="42.09" width="1.4" height="42.09"/><rect class="cls-1" x="516.17" y="42.09" width="1.4" height="42.09"/><rect class="cls-1" x="518.75" y="42.09" width="1.4" height="42.09"/><rect class="cls-1" x="521.33" y="42.09" width="1.4" height="42.09"/><rect class="cls-1" x="523.91" y="42.09" width="1.4" height="42.09"/><rect class="cls-1" x="526.5" y="42.09" width="1.4" height="42.09"/><rect class="cls-1" x="529.08" y="42.09" width="1.4" height="42.09"/><rect class="cls-1" x="531.66" y="42.09" width="1.4" height="42.09"/><rect class="cls-1" x="534.24" y="42.09" width="1.4" height="42.09"/><rect class="cls-1" x="536.82" width="1.4" height="84.19"/><rect class="cls-1" x="539.4" y="42.09" width="1.4" height="42.09"/><rect class="cls-1" x="541.98" y="42.09" width="1.4" height="42.09"/><rect class="cls-1" x="544.56" y="42.09" width="1.4" height="42.09"/><rect class="cls-1" x="547.14" y="42.09" width="1.4" height="42.09"/><rect class="cls-1" x="549.72" y="42.09" width="1.4" height="42.09"/><rect class="cls-1" x="552.3" y="42.09" width="1.4" height="42.09"/><rect class="cls-1" x="554.89" y="42.09" width="1.4" height="42.09"/><rect class="cls-1" x="557.47" y="42.09" width="1.4" height="42.09"/><rect class="cls-1" x="560.05" y="42.09" width="1.4" height="42.09"/><rect class="cls-1" x="562.63" y="42.09" width="1.4" height="42.09"/><rect class="cls-2" x="565.21" width="1.4" height="84.19"/><rect class="cls-1" x="567.79" y="42.09" width="1.4" height="42.09"/><rect class="cls-1" x="570.37" y="42.09" width="1.4" height="42.09"/><rect class="cls-1" x="572.95" y="42.09" width="1.4" height="42.09"/><rect class="cls-1" x="575.53" y="42.09" width="1.4" height="42.09"/><rect class="cls-1" x="578.11" y="42.09" width="1.4" height="42.09"/><rect class="cls-1" x="580.69" y="42.09" width="1.4" height="42.09"/><rect class="cls-1" x="583.27" y="42.09" width="1.4" height="42.09"/><rect class="cls-1" x="585.86" y="42.09" width="1.4" height="42.09"/><rect class="cls-1" x="588.44" y="42.09" width="1.4" height="42.09"/><rect class="cls-1" x="591.02" y="42.09" width="1.4" height="42.09"/><rect class="cls-1" x="593.6" width="1.4" height="84.19"/><rect class="cls-1" x="596.18" y="42.09" width="1.4" height="42.09"/><rect class="cls-1" x="598.76" y="42.09" width="1.4" height="42.09"/><rect class="cls-1" x="601.34" y="42.09" width="1.4" height="42.09"/><rect class="cls-1" x="603.92" y="42.09" width="1.4" height="42.09"/><rect class="cls-1" x="606.5" y="42.09" width="1.4" height="42.09"/><rect class="cls-1" x="609.08" y="42.09" width="1.4" height="42.09"/><rect class="cls-1" x="611.66" y="42.09" width="1.4" height="42.09"/><rect class="cls-1" x="614.25" y="42.09" width="1.4" height="42.09"/><rect class="cls-1" x="616.83" y="42.09" width="1.4" height="42.09"/><rect class="cls-1" x="619.41" y="42.09" width="1.4" height="42.09"/><rect class="cls-1" x="621.99" width="1.4" height="84.19"/><rect class="cls-1" x="624.57" y="42.09" width="1.4" height="42.09"/><rect class="cls-1" x="627.15" y="42.09" width="1.4" height="42.09"/><rect class="cls-1" x="629.73" y="42.09" width="1.4" height="42.09"/><rect class="cls-1" x="632.31" y="42.09" width="1.4" height="42.09"/><rect class="cls-1" x="634.89" y="42.09" width="1.4" height="42.09"/><rect class="cls-1" x="637.47" y="42.09" width="1.4" height="42.09"/><rect class="cls-1" x="640.05" y="42.09" width="1.4" height="42.09"/><rect class="cls-1" x="642.63" y="42.09" width="1.4" height="42.09"/><rect class="cls-1" x="645.22" y="42.09" width="1.4" height="42.09"/><rect class="cls-1" x="647.8" y="42.09" width="1.4" height="42.09"/><rect class="cls-1" x="650.38" width="1.4" height="84.19"/><rect class="cls-1" x="652.96" y="42.09" width="1.4" height="42.09"/><rect class="cls-1" x="655.54" y="42.09" width="1.4" height="42.09"/><rect class="cls-1" x="658.12" y="42.09" width="1.4" height="42.09"/><rect class="cls-1" x="660.7" y="42.09" width="1.4" height="42.09"/><rect class="cls-1" x="663.28" y="42.09" width="1.4" height="42.09"/><rect class="cls-1" x="665.86" y="42.09" width="1.4" height="42.09"/><rect class="cls-1" x="668.44" y="42.09" width="1.4" height="42.09"/><rect class="cls-1" x="671.02" y="42.09" width="1.4" height="42.09"/><rect class="cls-1" x="673.6" y="42.09" width="1.4" height="42.09"/><rect class="cls-1" x="676.19" y="42.09" width="1.4" height="42.09"/><rect class="cls-1" x="678.77" width="1.4" height="84.19"/><rect class="cls-1" x="681.35" y="42.09" width="1.4" height="42.09"/><rect class="cls-1" x="683.93" y="42.09" width="1.4" height="42.09"/><rect class="cls-1" x="686.51" y="42.09" width="1.4" height="42.09"/><rect class="cls-1" x="689.09" y="42.09" width="1.4" height="42.09"/><rect class="cls-1" x="691.67" y="42.09" width="1.4" height="42.09"/><rect class="cls-1" x="694.25" y="42.09" width="1.4" height="42.09"/><rect class="cls-1" x="696.83" y="42.09" width="1.4" height="42.09"/><rect class="cls-1" x="699.41" y="42.09" width="1.4" height="42.09"/><rect class="cls-1" x="701.99" y="42.09" width="1.4" height="42.09"/><rect class="cls-1" x="704.58" y="42.09" width="1.4" height="42.09"/><rect class="cls-1" x="707.16" width="1.4" height="84.19"/><rect class="cls-1" x="709.74" y="42.09" width="1.4" height="42.09"/><rect class="cls-1" x="712.32" y="42.09" width="1.4" height="42.09"/><rect class="cls-1" x="714.9" y="42.09" width="1.4" height="42.09"/><rect class="cls-1" x="717.48" y="42.09" width="1.4" height="42.09"/><rect class="cls-1" x="720.06" y="42.09" width="1.4" height="42.09"/><rect class="cls-1" x="722.64" y="42.09" width="1.4" height="42.09"/><rect class="cls-1" x="725.22" y="42.09" width="1.4" height="42.09"/><rect class="cls-1" x="727.8" y="42.09" width="1.4" height="42.09"/><rect class="cls-1" x="730.38" y="42.09" width="1.4" height="42.09"/><rect class="cls-1" x="732.96" y="42.09" width="1.4" height="42.09"/><rect class="cls-1" x="735.55" width="1.4" height="84.19"/><rect class="cls-1" x="738.13" y="42.09" width="1.4" height="42.09"/><rect class="cls-1" x="740.71" y="42.09" width="1.4" height="42.09"/><rect class="cls-1" x="743.29" y="42.09" width="1.4" height="42.09"/><rect class="cls-1" x="745.87" y="42.09" width="1.4" height="42.09"/><rect class="cls-1" x="748.45" y="42.09" width="1.4" height="42.09"/><rect class="cls-1" x="751.03" y="42.09" width="1.4" height="42.09"/><rect class="cls-1" x="753.61" y="42.09" width="1.4" height="42.09"/><rect class="cls-1" x="756.19" y="42.09" width="1.4" height="42.09"/><rect class="cls-1" x="758.77" y="42.09" width="1.4" height="42.09"/><rect class="cls-1" x="761.35" y="42.09" width="1.4" height="42.09"/><rect class="cls-1" x="763.94" width="1.4" height="84.19"/><rect class="cls-1" x="766.52" y="42.09" width="1.4" height="42.09"/><rect class="cls-1" x="769.1" y="42.09" width="1.4" height="42.09"/><rect class="cls-1" x="771.68" y="42.09" width="1.4" height="42.09"/><rect class="cls-1" x="774.26" y="42.09" width="1.4" height="42.09"/><rect class="cls-1" x="776.84" y="42.09" width="1.4" height="42.09"/><rect class="cls-1" x="779.42" y="42.09" width="1.4" height="42.09"/><rect class="cls-1" x="782" y="42.09" width="1.4" height="42.09"/><rect class="cls-1" x="784.58" y="42.09" width="1.4" height="42.09"/><rect class="cls-1" x="787.16" y="42.09" width="1.4" height="42.09"/><rect class="cls-1" x="789.74" y="42.09" width="1.4" height="42.09"/><rect class="cls-1" x="792.32" width="1.4" height="84.19"/><rect class="cls-1" x="794.91" y="42.09" width="1.4" height="42.09"/><rect class="cls-1" x="797.49" y="42.09" width="1.4" height="42.09"/><rect class="cls-1" x="800.07" y="42.09" width="1.4" height="42.09"/><rect class="cls-1" x="802.65" y="42.09" width="1.4" height="42.09"/><rect class="cls-1" x="805.23" y="42.09" width="1.4" height="42.09"/><rect class="cls-1" x="807.81" y="42.09" width="1.4" height="42.09"/><rect class="cls-1" x="810.39" y="42.09" width="1.4" height="42.09"/><rect class="cls-1" x="812.97" y="42.09" width="1.4" height="42.09"/><rect class="cls-1" x="815.55" y="42.09" width="1.4" height="42.09"/><rect class="cls-1" x="818.13" y="42.09" width="1.4" height="42.09"/><rect class="cls-1" x="820.71" width="1.4" height="84.19"/><rect class="cls-1" x="823.29" y="42.09" width="1.4" height="42.09"/><rect class="cls-1" x="825.88" y="42.09" width="1.4" height="42.09"/><rect class="cls-1" x="828.46" y="42.09" width="1.4" height="42.09"/><rect class="cls-1" x="831.04" y="42.09" width="1.4" height="42.09"/><rect class="cls-1" x="833.62" y="42.09" width="1.4" height="42.09"/><rect class="cls-1" x="836.2" y="42.09" width="1.4" height="42.09"/><rect class="cls-1" x="838.78" y="42.09" width="1.4" height="42.09"/><rect class="cls-1" x="841.36" y="42.09" width="1.4" height="42.09"/><rect class="cls-1" x="843.94" y="42.09" width="1.4" height="42.09"/><rect class="cls-1" x="846.52" y="42.09" width="1.4" height="42.09"/><rect class="cls-2" x="849.1" width="1.4" height="84.19"/><rect class="cls-1" x="851.68" y="42.09" width="1.4" height="42.09"/><rect class="cls-1" x="854.26" y="42.09" width="1.4" height="42.09"/><rect class="cls-1" x="856.85" y="42.09" width="1.4" height="42.09"/><rect class="cls-1" x="859.43" y="42.09" width="1.4" height="42.09"/><rect class="cls-1" x="862.01" y="42.09" width="1.4" height="42.09"/><rect class="cls-1" x="864.59" y="42.09" width="1.4" height="42.09"/><rect class="cls-1" x="867.17" y="42.09" width="1.4" height="42.09"/><rect class="cls-1" x="869.75" y="42.09" width="1.4" height="42.09"/><rect class="cls-1" x="872.33" y="42.09" width="1.4" height="42.09"/><rect class="cls-1" x="874.91" y="42.09" width="1.4" height="42.09"/><rect class="cls-1" x="877.49" width="1.4" height="84.19"/><rect class="cls-1" x="880.07" y="42.09" width="1.4" height="42.09"/><rect class="cls-1" x="882.65" y="42.09" width="1.4" height="42.09"/><rect class="cls-1" x="885.24" y="42.09" width="1.4" height="42.09"/><rect class="cls-1" x="887.82" y="42.09" width="1.4" height="42.09"/><rect class="cls-1" x="890.4" y="42.09" width="1.4" height="42.09"/><rect class="cls-1" x="892.98" y="42.09" width="1.4" height="42.09"/><rect class="cls-1" x="895.56" y="42.09" width="1.4" height="42.09"/><rect class="cls-1" x="898.14" y="42.09" width="1.4" height="42.09"/><rect class="cls-1" x="900.72" y="42.09" width="1.4" height="42.09"/><rect class="cls-1" x="903.3" y="42.09" width="1.4" height="42.09"/><rect class="cls-1" x="905.88" width="1.4" height="84.19"/><rect class="cls-1" x="908.46" y="42.09" width="1.4" height="42.09"/><rect class="cls-1" x="911.04" y="42.09" width="1.4" height="42.09"/><rect class="cls-1" x="913.63" y="42.09" width="1.4" height="42.09"/><rect class="cls-1" x="916.21" y="42.09" width="1.4" height="42.09"/><rect class="cls-1" x="918.79" y="42.09" width="1.4" height="42.09"/><rect class="cls-1" x="921.37" y="42.09" width="1.4" height="42.09"/><rect class="cls-1" x="923.95" y="42.09" width="1.4" height="42.09"/><rect class="cls-1" x="926.53" y="42.09" width="1.4" height="42.09"/><rect class="cls-1" x="929.11" y="42.09" width="1.4" height="42.09"/><rect class="cls-1" x="931.69" y="42.09" width="1.4" height="42.09"/><rect class="cls-1" x="934.27" width="1.4" height="84.19"/><rect class="cls-1" x="936.85" y="42.09" width="1.4" height="42.09"/><rect class="cls-1" x="939.43" y="42.09" width="1.4" height="42.09"/><rect class="cls-1" x="942.01" y="42.09" width="1.4" height="42.09"/><rect class="cls-1" x="944.59" y="42.09" width="1.4" height="42.09"/><rect class="cls-1" x="947.18" y="42.09" width="1.4" height="42.09"/><rect class="cls-1" x="949.76" y="42.09" width="1.4" height="42.09"/><rect class="cls-1" x="952.34" y="42.09" width="1.4" height="42.09"/><rect class="cls-1" x="954.92" y="42.09" width="1.4" height="42.09"/><rect class="cls-1" x="957.5" y="42.09" width="1.4" height="42.09"/><rect class="cls-1" x="960.08" y="42.09" width="1.4" height="42.09"/><rect class="cls-1" x="962.66" width="1.4" height="84.19"/><rect class="cls-1" x="965.24" y="42.09" width="1.4" height="42.09"/><rect class="cls-1" x="967.82" y="42.09" width="1.4" height="42.09"/><rect class="cls-1" x="970.4" y="42.09" width="1.4" height="42.09"/><rect class="cls-1" x="972.98" y="42.09" width="1.4" height="42.09"/><rect class="cls-1" x="975.57" y="42.09" width="1.4" height="42.09"/><rect class="cls-1" x="978.15" y="42.09" width="1.4" height="42.09"/><rect class="cls-1" x="980.73" y="42.09" width="1.4" height="42.09"/><rect class="cls-1" x="983.31" y="42.09" width="1.4" height="42.09"/><rect class="cls-1" x="985.89" y="42.09" width="1.4" height="42.09"/><rect class="cls-1" x="988.47" y="42.09" width="1.4" height="42.09"/><rect class="cls-1" x="991.05" width="1.4" height="84.19"/><rect class="cls-1" x="993.63" y="42.09" width="1.4" height="42.09"/><rect class="cls-1" x="996.21" y="42.09" width="1.4" height="42.09"/><rect class="cls-1" x="998.79" y="42.09" width="1.4" height="42.09"/><rect class="cls-1" x="1001.37" y="42.09" width="1.4" height="42.09"/><rect class="cls-1" x="1003.96" y="42.09" width="1.4" height="42.09"/><rect class="cls-1" x="1006.54" y="42.09" width="1.4" height="42.09"/><rect class="cls-1" x="1009.12" y="42.09" width="1.4" height="42.09"/><rect class="cls-1" x="1011.7" y="42.09" width="1.4" height="42.09"/><rect class="cls-1" x="1014.28" y="42.09" width="1.4" height="42.09"/><rect class="cls-1" x="1016.86" y="42.09" width="1.4" height="42.09"/><rect class="cls-1" x="1019.44" width="1.4" height="84.19"/><rect class="cls-1" x="1022.02" y="42.09" width="1.4" height="42.09"/><rect class="cls-1" x="1024.6" y="42.09" width="1.4" height="42.09"/><rect class="cls-1" x="1027.18" y="42.09" width="1.4" height="42.09"/><rect class="cls-1" x="1029.76" y="42.09" width="1.4" height="42.09"/><rect class="cls-1" x="1032.34" y="42.09" width="1.4" height="42.09"/><rect class="cls-1" x="1034.92" y="42.09" width="1.4" height="42.09"/><rect class="cls-1" x="1037.51" y="42.09" width="1.4" height="42.09"/><rect class="cls-1" x="1040.09" y="42.09" width="1.4" height="42.09"/><rect class="cls-1" x="1042.67" y="42.09" width="1.4" height="42.09"/><rect class="cls-1" x="1045.25" y="42.09" width="1.4" height="42.09"/><rect class="cls-1" x="1047.83" width="1.4" height="84.19"/><rect class="cls-1" x="1050.41" y="42.09" width="1.4" height="42.09"/><rect class="cls-1" x="1052.99" y="42.09" width="1.4" height="42.09"/><rect class="cls-1" x="1055.57" y="42.09" width="1.4" height="42.09"/><rect class="cls-1" x="1058.15" y="42.09" width="1.4" height="42.09"/><rect class="cls-1" x="1060.73" y="42.09" width="1.4" height="42.09"/><rect class="cls-1" x="1063.31" y="42.09" width="1.4" height="42.09"/><rect class="cls-1" x="1065.9" y="42.09" width="1.4" height="42.09"/><rect class="cls-1" x="1068.48" y="42.09" width="1.4" height="42.09"/><rect class="cls-1" x="1071.06" y="42.09" width="1.4" height="42.09"/><rect class="cls-1" x="1073.64" y="42.09" width="1.4" height="42.09"/><rect class="cls-1" x="1076.22" width="1.4" height="84.19"/><rect class="cls-1" x="1078.8" y="42.09" width="1.4" height="42.09"/><rect class="cls-1" x="1081.38" y="42.09" width="1.4" height="42.09"/><rect class="cls-1" x="1083.96" y="42.09" width="1.4" height="42.09"/><rect class="cls-1" x="1086.54" y="42.09" width="1.4" height="42.09"/><rect class="cls-1" x="1089.12" y="42.09" width="1.4" height="42.09"/><rect class="cls-1" x="1091.7" y="42.09" width="1.4" height="42.09"/><rect class="cls-1" x="1094.29" y="42.09" width="1.4" height="42.09"/><rect class="cls-1" x="1096.87" y="42.09" width="1.4" height="42.09"/><rect class="cls-1" x="1099.45" y="42.09" width="1.4" height="42.09"/><rect class="cls-1" x="1102.03" y="42.09" width="1.4" height="42.09"/><rect class="cls-1" x="1104.61" width="1.4" height="84.19"/><rect class="cls-1" x="1107.19" y="42.09" width="1.4" height="42.09"/><rect class="cls-1" x="1109.77" y="42.09" width="1.4" height="42.09"/><rect class="cls-1" x="1112.35" y="42.09" width="1.4" height="42.09"/><rect class="cls-1" x="1114.93" y="42.09" width="1.4" height="42.09"/><rect class="cls-1" x="1117.51" y="42.09" width="1.4" height="42.09"/><rect class="cls-1" x="1120.09" y="42.09" width="1.4" height="42.09"/><rect class="cls-1" x="1122.67" y="42.09" width="1.4" height="42.09"/><rect class="cls-1" x="1125.26" y="42.09" width="1.4" height="42.09"/><rect class="cls-1" x="1127.84" y="42.09" width="1.4" height="42.09"/><rect class="cls-1" x="1130.42" y="42.09" width="1.4" height="42.09"/><rect class="cls-2" x="1133" width="1.4" height="84.19"/><rect class="cls-1" x="1135.58" y="42.09" width="1.4" height="42.09"/><rect class="cls-1" x="1138.16" y="42.09" width="1.4" height="42.09"/><rect class="cls-1" x="1140.74" y="42.09" width="1.4" height="42.09"/><rect class="cls-1" x="1143.32" y="42.09" width="1.4" height="42.09"/><rect class="cls-1" x="1145.9" y="42.09" width="1.4" height="42.09"/><rect class="cls-1" x="1148.48" y="42.09" width="1.4" height="42.09"/><rect class="cls-1" x="1151.06" y="42.09" width="1.4" height="42.09"/><rect class="cls-1" x="1153.64" y="42.09" width="1.4" height="42.09"/><rect class="cls-1" x="1156.23" y="42.09" width="1.4" height="42.09"/><rect class="cls-1" x="1158.81" y="42.09" width="1.4" height="42.09"/><rect class="cls-1" x="1161.39" width="1.4" height="84.19"/><rect class="cls-1" x="1163.97" y="42.09" width="1.4" height="42.09"/><rect class="cls-1" x="1166.55" y="42.09" width="1.4" height="42.09"/><rect class="cls-1" x="1169.13" y="42.09" width="1.4" height="42.09"/><rect class="cls-1" x="1171.71" y="42.09" width="1.4" height="42.09"/><rect class="cls-1" x="1174.29" y="42.09" width="1.4" height="42.09"/><rect class="cls-1" x="1176.87" y="42.09" width="1.4" height="42.09"/><rect class="cls-1" x="1179.45" y="42.09" width="1.4" height="42.09"/><rect class="cls-1" x="1182.03" y="42.09" width="1.4" height="42.09"/><rect class="cls-1" x="1184.62" y="42.09" width="1.4" height="42.09"/><rect class="cls-1" x="1187.2" y="42.09" width="1.4" height="42.09"/><rect class="cls-1" x="1189.78" width="1.4" height="84.19"/><rect class="cls-1" x="1192.36" y="42.09" width="1.4" height="42.09"/><rect class="cls-1" x="1194.94" y="42.09" width="1.4" height="42.09"/><rect class="cls-1" x="1197.52" y="42.09" width="1.4" height="42.09"/><rect class="cls-1" x="1200.1" y="42.09" width="1.4" height="42.09"/><rect class="cls-1" x="1202.68" y="42.09" width="1.4" height="42.09"/><rect class="cls-1" x="1205.26" y="42.09" width="1.4" height="42.09"/><rect class="cls-1" x="1207.84" y="42.09" width="1.4" height="42.09"/><rect class="cls-1" x="1210.42" y="42.09" width="1.4" height="42.09"/><rect class="cls-1" x="1213" y="42.09" width="1.4" height="42.09"/><rect class="cls-1" x="1215.59" y="42.09" width="1.4" height="42.09"/><rect class="cls-1" x="1218.17" width="1.4" height="84.19"/><rect class="cls-1" x="1220.75" y="42.09" width="1.4" height="42.09"/><rect class="cls-1" x="1223.33" y="42.09" width="1.4" height="42.09"/><rect class="cls-1" x="1225.91" y="42.09" width="1.4" height="42.09"/><rect class="cls-1" x="1228.49" y="42.09" width="1.4" height="42.09"/><rect class="cls-1" x="1231.07" y="42.09" width="1.4" height="42.09"/><rect class="cls-1" x="1233.65" y="42.09" width="1.4" height="42.09"/><rect class="cls-1" x="1236.23" y="42.09" width="1.4" height="42.09"/><rect class="cls-1" x="1238.81" y="42.09" width="1.4" height="42.09"/><rect class="cls-1" x="1241.39" y="42.09" width="1.4" height="42.09"/><rect class="cls-1" x="1243.97" y="42.09" width="1.4" height="42.09"/><rect class="cls-1" x="1246.56" width="1.4" height="84.19"/><rect class="cls-1" x="1249.14" y="42.09" width="1.4" height="42.09"/><rect class="cls-1" x="1251.72" y="42.09" width="1.4" height="42.09"/><rect class="cls-1" x="1254.3" y="42.09" width="1.4" height="42.09"/><rect class="cls-1" x="1256.88" y="42.09" width="1.4" height="42.09"/><rect class="cls-1" x="1259.46" y="42.09" width="1.4" height="42.09"/><rect class="cls-1" x="1262.04" y="42.09" width="1.4" height="42.09"/><rect class="cls-1" x="1264.62" y="42.09" width="1.4" height="42.09"/><rect class="cls-1" x="1267.2" y="42.09" width="1.4" height="42.09"/><rect class="cls-1" x="1269.78" y="42.09" width="1.4" height="42.09"/><rect class="cls-1" x="1272.36" y="42.09" width="1.4" height="42.09"/><rect class="cls-1" x="1274.95" width="1.4" height="84.19"/><rect class="cls-1" x="1277.53" y="42.09" width="1.4" height="42.09"/><rect class="cls-1" x="1280.11" y="42.09" width="1.4" height="42.09"/><rect class="cls-1" x="1282.69" y="42.09" width="1.4" height="42.09"/><rect class="cls-1" x="1285.27" y="42.09" width="1.4" height="42.09"/><rect class="cls-1" x="1287.85" y="42.09" width="1.4" height="42.09"/><rect class="cls-1" x="1290.43" y="42.09" width="1.4" height="42.09"/><rect class="cls-1" x="1293.01" y="42.09" width="1.4" height="42.09"/><rect class="cls-1" x="1295.59" y="42.09" width="1.4" height="42.09"/><rect class="cls-1" x="1298.17" y="42.09" width="1.4" height="42.09"/><rect class="cls-1" x="1300.75" y="42.09" width="1.4" height="42.09"/><rect class="cls-1" x="1303.33" width="1.4" height="84.19"/><rect class="cls-1" x="1305.92" y="42.09" width="1.4" height="42.09"/><rect class="cls-1" x="1308.5" y="42.09" width="1.4" height="42.09"/><rect class="cls-1" x="1311.08" y="42.09" width="1.4" height="42.09"/><rect class="cls-1" x="1313.66" y="42.09" width="1.4" height="42.09"/><rect class="cls-1" x="1316.24" y="42.09" width="1.4" height="42.09"/><rect class="cls-1" x="1318.82" y="42.09" width="1.4" height="42.09"/><rect class="cls-1" x="1321.4" y="42.09" width="1.4" height="42.09"/><rect class="cls-1" x="1323.98" y="42.09" width="1.4" height="42.09"/><rect class="cls-1" x="1326.56" y="42.09" width="1.4" height="42.09"/><rect class="cls-1" x="1329.14" y="42.09" width="1.4" height="42.09"/><rect class="cls-1" x="1331.72" width="1.4" height="84.19"/><rect class="cls-1" x="1334.3" y="42.09" width="1.4" height="42.09"/><rect class="cls-1" x="1336.89" y="42.09" width="1.4" height="42.09"/><rect class="cls-1" x="1339.47" y="42.09" width="1.4" height="42.09"/><rect class="cls-1" x="1342.05" y="42.09" width="1.4" height="42.09"/><rect class="cls-1" x="1344.63" y="42.09" width="1.4" height="42.09"/><rect class="cls-1" x="1347.21" y="42.09" width="1.4" height="42.09"/><rect class="cls-1" x="1349.79" y="42.09" width="1.4" height="42.09"/><rect class="cls-1" x="1352.37" y="42.09" width="1.4" height="42.09"/><rect class="cls-1" x="1354.95" y="42.09" width="1.4" height="42.09"/><rect class="cls-1" x="1357.53" y="42.09" width="1.4" height="42.09"/><rect class="cls-1" x="1360.11" width="1.4" height="84.19"/><rect class="cls-1" x="1362.69" y="42.09" width="1.4" height="42.09"/><rect class="cls-1" x="1365.28" y="42.09" width="1.4" height="42.09"/><rect class="cls-1" x="1367.86" y="42.09" width="1.4" height="42.09"/><rect class="cls-1" x="1370.44" y="42.09" width="1.4" height="42.09"/><rect class="cls-1" x="1373.02" y="42.09" width="1.4" height="42.09"/><rect class="cls-1" x="1375.6" y="42.09" width="1.4" height="42.09"/><rect class="cls-1" x="1378.18" y="42.09" width="1.4" height="42.09"/><rect class="cls-1" x="1380.76" y="42.09" width="1.4" height="42.09"/><rect class="cls-1" x="1383.34" y="42.09" width="1.4" height="42.09"/><rect class="cls-1" x="1385.92" y="42.09" width="1.4" height="42.09"/><rect class="cls-1" x="1388.5" width="1.4" height="84.19"/><rect class="cls-1" x="1391.08" y="42.09" width="1.4" height="42.09"/><rect class="cls-1" x="1393.67" y="42.09" width="1.4" height="42.09"/><rect class="cls-1" x="1396.25" y="42.09" width="1.4" height="42.09"/><rect class="cls-1" x="1398.83" y="42.09" width="1.4" height="42.09"/><rect class="cls-1" x="1401.41" y="42.09" width="1.4" height="42.09"/><rect class="cls-1" x="1403.99" y="42.09" width="1.4" height="42.09"/><rect class="cls-1" x="1406.57" y="42.09" width="1.4" height="42.09"/><rect class="cls-1" x="1409.15" y="42.09" width="1.4" height="42.09"/><rect class="cls-1" x="1411.73" y="42.09" width="1.4" height="42.09"/><rect class="cls-1" x="1414.31" y="42.09" width="1.4" height="42.09"/><rect class="cls-2" x="1416.89" width="1.4" height="84.19"/><rect class="cls-1" x="1419.47" y="42.09" width="1.4" height="42.09"/><rect class="cls-1" x="1422.05" y="42.09" width="1.4" height="42.09"/><rect class="cls-1" x="1424.64" y="42.09" width="1.4" height="42.09"/><rect class="cls-1" x="1427.22" y="42.09" width="1.4" height="42.09"/><rect class="cls-1" x="1429.8" y="42.09" width="1.4" height="42.09"/><rect class="cls-1" x="1432.38" y="42.09" width="1.4" height="42.09"/><rect class="cls-1" x="1434.96" y="42.09" width="1.4" height="42.09"/><rect class="cls-1" x="1437.54" y="42.09" width="1.4" height="42.09"/><rect class="cls-1" x="1440.12" y="42.09" width="1.4" height="42.09"/><rect class="cls-1" x="1442.7" y="42.09" width="1.4" height="42.09"/><rect class="cls-1" x="1445.28" width="1.4" height="84.19"/><rect class="cls-1" x="1447.86" y="42.09" width="1.4" height="42.09"/><rect class="cls-1" x="1450.44" y="42.09" width="1.4" height="42.09"/><rect class="cls-1" x="1453.02" y="42.09" width="1.4" height="42.09"/><rect class="cls-1" x="1455.61" y="42.09" width="1.4" height="42.09"/><rect class="cls-1" x="1458.19" y="42.09" width="1.4" height="42.09"/><rect class="cls-1" x="1460.77" y="42.09" width="1.4" height="42.09"/><rect class="cls-1" x="1463.35" y="42.09" width="1.4" height="42.09"/><rect class="cls-1" x="1465.93" y="42.09" width="1.4" height="42.09"/><rect class="cls-1" x="1468.51" y="42.09" width="1.4" height="42.09"/><rect class="cls-1" x="1471.09" y="42.09" width="1.4" height="42.09"/><rect class="cls-1" x="1473.67" width="1.4" height="84.19"/><rect class="cls-1" x="1476.25" y="42.09" width="1.4" height="42.09"/><rect class="cls-1" x="1478.83" y="42.09" width="1.4" height="42.09"/><rect class="cls-1" x="1481.41" y="42.09" width="1.4" height="42.09"/><rect class="cls-1" x="1484" y="42.09" width="1.4" height="42.09"/><rect class="cls-1" x="1486.58" y="42.09" width="1.4" height="42.09"/><rect class="cls-1" x="1489.16" y="42.09" width="1.4" height="42.09"/><rect class="cls-1" x="1491.74" y="42.09" width="1.4" height="42.09"/><rect class="cls-1" x="1494.32" y="42.09" width="1.4" height="42.09"/><rect class="cls-1" x="1496.9" y="42.09" width="1.4" height="42.09"/><rect class="cls-1" x="1499.48" y="42.09" width="1.4" height="42.09"/><rect class="cls-1" x="1502.06" width="1.4" height="84.19"/><rect class="cls-1" x="1504.64" y="42.09" width="1.4" height="42.09"/><rect class="cls-1" x="1507.22" y="42.09" width="1.4" height="42.09"/><rect class="cls-1" x="1509.8" y="42.09" width="1.4" height="42.09"/><rect class="cls-1" x="1512.38" y="42.09" width="1.4" height="42.09"/><rect class="cls-1" x="1514.97" y="42.09" width="1.4" height="42.09"/><rect class="cls-1" x="1517.55" y="42.09" width="1.4" height="42.09"/><rect class="cls-1" x="1520.13" y="42.09" width="1.4" height="42.09"/><rect class="cls-1" x="1522.71" y="42.09" width="1.4" height="42.09"/><rect class="cls-1" x="1525.29" y="42.09" width="1.4" height="42.09"/><rect class="cls-1" x="1527.87" y="42.09" width="1.4" height="42.09"/><rect class="cls-1" x="1530.45" width="1.4" height="84.19"/><rect class="cls-1" x="1533.03" y="42.09" width="1.4" height="42.09"/><rect class="cls-1" x="1535.61" y="42.09" width="1.4" height="42.09"/><rect class="cls-1" x="1538.19" y="42.09" width="1.4" height="42.09"/><rect class="cls-1" x="1540.77" y="42.09" width="1.4" height="42.09"/><rect class="cls-1" x="1543.35" y="42.09" width="1.4" height="42.09"/><rect class="cls-1" x="1545.94" y="42.09" width="1.4" height="42.09"/><rect class="cls-1" x="1548.52" y="42.09" width="1.4" height="42.09"/><rect class="cls-1" x="1551.1" y="42.09" width="1.4" height="42.09"/><rect class="cls-1" x="1553.68" y="42.09" width="1.4" height="42.09"/><rect class="cls-1" x="1556.26" y="42.09" width="1.4" height="42.09"/><rect class="cls-1" x="1558.84" width="1.4" height="84.19"/><rect class="cls-1" x="1561.42" y="42.09" width="1.4" height="42.09"/><rect class="cls-1" x="1564" y="42.09" width="1.4" height="42.09"/><rect class="cls-1" x="1566.58" y="42.09" width="1.4" height="42.09"/><rect class="cls-1" x="1569.16" y="42.09" width="1.4" height="42.09"/><rect class="cls-1" x="1571.74" y="42.09" width="1.4" height="42.09"/><rect class="cls-1" x="1574.33" y="42.09" width="1.4" height="42.09"/><rect class="cls-1" x="1576.91" y="42.09" width="1.4" height="42.09"/><rect class="cls-1" x="1579.49" y="42.09" width="1.4" height="42.09"/><rect class="cls-1" x="1582.07" y="42.09" width="1.4" height="42.09"/><rect class="cls-1" x="1584.65" y="42.09" width="1.4" height="42.09"/><rect class="cls-1" x="1587.23" width="1.4" height="84.19"/><rect class="cls-1" x="1589.81" y="42.09" width="1.4" height="42.09"/><rect class="cls-1" x="1592.39" y="42.09" width="1.4" height="42.09"/><rect class="cls-1" x="1594.97" y="42.09" width="1.4" height="42.09"/><rect class="cls-1" x="1597.55" y="42.09" width="1.4" height="42.09"/><rect class="cls-1" x="1600.13" y="42.09" width="1.4" height="42.09"/><rect class="cls-1" x="1602.71" y="42.09" width="1.4" height="42.09"/><rect class="cls-1" x="1605.3" y="42.09" width="1.4" height="42.09"/><rect class="cls-1" x="1607.88" y="42.09" width="1.4" height="42.09"/><rect class="cls-1" x="1610.46" y="42.09" width="1.4" height="42.09"/><rect class="cls-1" x="1613.04" y="42.09" width="1.4" height="42.09"/><rect class="cls-1" x="1615.62" width="1.4" height="84.19"/><rect class="cls-1" x="1618.2" y="42.09" width="1.4" height="42.09"/><rect class="cls-1" x="1620.78" y="42.09" width="1.4" height="42.09"/><rect class="cls-1" x="1623.36" y="42.09" width="1.4" height="42.09"/><rect class="cls-1" x="1625.94" y="42.09" width="1.4" height="42.09"/><rect class="cls-1" x="1628.52" y="42.09" width="1.4" height="42.09"/><rect class="cls-1" x="1631.1" y="42.09" width="1.4" height="42.09"/><rect class="cls-1" x="1633.68" y="42.09" width="1.4" height="42.09"/><rect class="cls-1" x="1636.27" y="42.09" width="1.4" height="42.09"/><rect class="cls-1" x="1638.85" y="42.09" width="1.4" height="42.09"/><rect class="cls-1" x="1641.43" y="42.09" width="1.4" height="42.09"/><rect class="cls-1" x="1644.01" width="1.4" height="84.19"/><rect class="cls-1" x="1646.59" y="42.09" width="1.4" height="42.09"/><rect class="cls-1" x="1649.17" y="42.09" width="1.4" height="42.09"/><rect class="cls-1" x="1651.75" y="42.09" width="1.4" height="42.09"/><rect class="cls-1" x="1654.33" y="42.09" width="1.4" height="42.09"/><rect class="cls-1" x="1656.91" y="42.09" width="1.4" height="42.09"/><rect class="cls-1" x="1659.49" y="42.09" width="1.4" height="42.09"/><rect class="cls-1" x="1662.07" y="42.09" width="1.4" height="42.09"/><rect class="cls-1" x="1664.66" y="42.09" width="1.4" height="42.09"/><rect class="cls-1" x="1667.24" y="42.09" width="1.4" height="42.09"/><rect class="cls-1" x="1669.82" y="42.09" width="1.4" height="42.09"/><rect class="cls-1" x="1672.4" width="1.4" height="84.19"/><rect class="cls-1" x="1674.98" y="42.09" width="1.4" height="42.09"/><rect class="cls-1" x="1677.56" y="42.09" width="1.4" height="42.09"/><rect class="cls-1" x="1680.14" y="42.09" width="1.4" height="42.09"/><rect class="cls-1" x="1682.72" y="42.09" width="1.4" height="42.09"/><rect class="cls-1" x="1685.3" y="42.09" width="1.4" height="42.09"/><rect class="cls-1" x="1687.88" y="42.09" width="1.4" height="42.09"/><rect class="cls-1" x="1690.46" y="42.09" width="1.4" height="42.09"/><rect class="cls-1" x="1693.04" y="42.09" width="1.4" height="42.09"/><rect class="cls-1" x="1695.63" y="42.09" width="1.4" height="42.09"/><rect class="cls-1" x="1698.21" y="42.09" width="1.4" height="42.09"/><rect class="cls-2" x="1700.79" width="1.4" height="84.19"/></svg>